<svg width="22" height="19" viewBox="0 0 22 19" fill="none" xmlns="http://www.w3.org/2000/svg">
<g clip-path="url(#clip0_308_3739)">
<path d="M21.2744 8.59961H20.0439C19.5254 4.14355 15.6582 0.566406 11 0.566406C8.42477 0.566406 6.08688 1.69141 4.46969 3.44922C4.03903 3.87109 4.05661 4.43359 4.40817 4.75879C4.76852 5.09277 5.28708 5.09277 5.72653 4.68848C7.0361 3.27344 8.91696 2.38574 11 2.38574C14.709 2.38574 17.706 5.10156 18.207 8.59961H16.8623C16.1855 8.59961 16.0009 9.10059 16.3965 9.64551L18.497 12.6162C18.8222 13.0557 19.3144 13.0645 19.6308 12.6162L21.7402 9.6543C22.1357 9.10059 21.9599 8.59961 21.2744 8.59961ZM0.725554 10.7178H1.96481C2.48337 15.1738 6.35055 18.751 11 18.751C13.5927 18.751 15.9306 17.6172 17.5478 15.8594C17.9697 15.4375 17.9521 14.875 17.6006 14.5498C17.2402 14.2158 16.7304 14.2158 16.2822 14.6289C14.9902 16.0439 13.1093 16.9316 11 16.9316C7.29977 16.9316 4.3027 14.2158 3.80173 10.7178H5.13766C5.80563 10.7178 5.99899 10.2168 5.60348 9.67188L3.49411 6.70117C3.1777 6.26172 2.68552 6.25293 2.36911 6.70117L0.259734 9.66309C-0.144563 10.2168 0.0400073 10.7178 0.725554 10.7178Z" fill="#1D9BF0"/>
</g>
<defs>
<clipPath id="clip0_308_3739">
<rect width="22" height="19" fill="white"/>
</clipPath>
</defs>
</svg>
