<svg width="20" height="17" viewBox="0 0 20 17" fill="none" xmlns="http://www.w3.org/2000/svg">
<g clip-path="url(#clip0_308_3239)">
<path d="M8.83105 16.8369C9.50781 16.8369 10.0176 16.3359 10.0176 15.6504V12.5039H10.2373C13.4453 12.5039 15.4053 13.4443 16.7852 16.0107C17.1367 16.6523 17.5586 16.8018 18.0244 16.8018C18.6396 16.8018 19.1143 16.2217 19.1143 15.1055C19.1143 8.72461 16.293 4.83105 10.2373 4.83105H10.0176V1.70215C10.0176 1.0166 9.50781 0.47168 8.81348 0.47168C8.34766 0.47168 8.01367 0.665039 7.50391 1.13965L0.542969 7.62598C0.200195 7.95117 0.0683594 8.32031 0.0683594 8.6543C0.0683594 8.97949 0.200195 9.35742 0.542969 9.68262L7.50391 16.2129C7.96973 16.6523 8.34766 16.8369 8.83105 16.8369ZM8.26855 14.5693C8.22461 14.5693 8.17188 14.543 8.11914 14.499L2.11621 8.82129C2.0459 8.75098 2.01953 8.70703 2.01953 8.6543C2.01953 8.60156 2.0459 8.55762 2.11621 8.4873L8.11914 2.75684C8.16309 2.71289 8.21582 2.68652 8.26855 2.68652C8.34766 2.68652 8.40039 2.73926 8.40039 2.81836V6.14062C8.40039 6.34277 8.48828 6.43066 8.69043 6.43066H9.81543C15.4756 6.43066 17.4619 10.166 17.6113 14.3584C17.6113 14.4199 17.585 14.4463 17.541 14.4463C17.5059 14.4463 17.4883 14.4199 17.4619 14.3672C16.416 12.1699 13.8408 10.8955 9.81543 10.8955H8.69043C8.48828 10.8955 8.40039 10.9834 8.40039 11.1855V14.4287C8.40039 14.5166 8.34766 14.5693 8.26855 14.5693Z" fill="#1D9BF0"/>
</g>
<defs>
<clipPath id="clip0_308_3239">
<rect width="20" height="17" fill="white"/>
</clipPath>
</defs>
</svg>
