<svg width="20" height="24" viewBox="0 0 20 24" fill="none" xmlns="http://www.w3.org/2000/svg">
<path d="M11.5205 23.2383C15.1416 23.2383 17.3213 21.9375 17.3213 19.7666V15.0029C18.8418 13.667 19.7295 11.5312 19.7295 9.16699C19.7295 3.67383 16.1699 0.0175781 10.8262 0.0175781C5.50879 0.0175781 1.9668 3.59473 1.9668 8.97363C1.9668 9.27246 1.97559 9.52734 2.00195 9.77344L0.736328 12.041C0.411133 12.6123 0.261719 13.1572 0.261719 13.667C0.261719 14.6338 0.868164 15.416 1.9668 15.6445V17.4287C1.9668 19.2305 3.20605 20.127 4.92871 19.9424L5.80762 19.8457C5.86035 21.9727 7.99609 23.2383 11.5205 23.2383ZM11.5205 21.542C8.9541 21.542 7.41602 20.751 7.41602 19.4766V18.2725C7.41602 18.0703 7.29297 17.9736 7.09961 17.9912L4.72656 18.2461C4.03223 18.3252 3.66309 18.0264 3.66309 17.2969V14.502C3.66309 14.3613 3.55762 14.2646 3.4082 14.2646H2.9248C2.3623 14.2646 2.03711 13.9834 2.03711 13.5439C2.03711 13.3154 2.11621 13.043 2.27441 12.7705L3.75098 10.1162C3.68945 9.7207 3.6543 9.33398 3.6543 8.94727C3.6543 4.60547 6.51953 1.71387 10.8262 1.71387C15.1504 1.71387 18.0332 4.69336 18.0332 9.16699C18.0332 11.3467 17.1191 13.2363 15.6162 14.1504V19.4766C15.6162 20.751 14.0781 21.542 11.5205 21.542ZM5.02539 7.53223C5.02539 9.21094 6.18555 10.3535 7.91699 10.3535C8.1543 10.3535 8.37402 10.3359 8.58496 10.292C9.1123 10.749 9.86816 11.0127 10.6943 11.0127C11.0107 11.0127 11.3535 10.9775 11.6875 10.8896C12.0215 11.2236 12.5225 11.417 13.1113 11.417H13.3311C13.4893 12.2959 14.0605 12.8936 14.7812 12.8936C15.8184 12.8936 16.5566 11.7422 16.5566 10.1074C16.5566 9.67676 16.5391 9.34277 16.5127 9.04395C16.8115 8.65723 16.9785 8.14746 16.9785 7.55859C16.9785 6.38965 16.2051 5.47559 15.0273 5.2207C14.7725 4.19238 13.8848 3.4541 12.8037 3.4541C12.7246 3.4541 12.6191 3.47168 12.5137 3.48926C12.127 3.05859 11.5469 2.79492 10.9229 2.79492C10.2373 2.79492 9.63965 3.0498 9.22656 3.47168C8.91895 3.34863 8.60254 3.28711 8.26855 3.28711C7.09082 3.28711 6.20312 4.0957 6.20312 5.19434V5.20312C5.47363 5.73047 5.02539 6.60938 5.02539 7.53223ZM8.58496 5.0625C8.57617 5.35254 8.77832 5.56348 9.05957 5.56348C9.34082 5.56348 9.52539 5.37891 9.54297 5.09766C9.56934 4.30664 10.1406 3.75293 10.9229 3.75293C11.3799 3.75293 11.793 3.99902 11.96 4.37695C12.0303 4.50879 12.1709 4.51758 12.373 4.46484C12.4785 4.43848 12.5928 4.4209 12.7158 4.4209C13.5156 4.42969 14.1309 5.04492 14.1309 5.85352C14.1309 7.86621 11.2041 7.56738 11.2041 9.7207C11.2041 9.81738 11.2129 9.91406 11.2305 10.0107C11.0811 10.0371 10.9229 10.0459 10.7734 10.0459C10.4043 10.0459 10.0439 9.9668 9.74512 9.83496C10.3955 9.39551 10.7822 8.68359 10.7822 7.81348C10.7822 7.76074 10.7734 7.70801 10.7734 7.65527C11.7051 7.36523 12.1973 6.68848 12.1885 5.65137C12.1885 5.39648 11.96 5.16797 11.6963 5.16797C11.4414 5.16797 11.2217 5.3877 11.2305 5.65137C11.2393 6.24023 11.0107 6.58301 10.5098 6.73242C10.4131 6.57422 10.2988 6.43359 10.1582 6.31934C9.97363 6.16113 9.85059 6.09961 9.6748 6.09961C9.40234 6.09961 9.20898 6.28418 9.20898 6.53906C9.20898 6.82031 9.3584 6.89941 9.56934 7.09277C9.73633 7.25098 9.82422 7.49707 9.82422 7.7959C9.82422 8.75391 9.07715 9.38672 7.93457 9.38672C6.75684 9.38672 5.9834 8.65723 5.9834 7.53223C5.9834 7.04004 6.16797 6.57422 6.49316 6.23145C6.81836 6.72363 7.38965 7.01367 8.10156 7.01367C8.35645 7.01367 8.58496 6.79395 8.58496 6.53906C8.58496 6.27539 8.36523 6.05566 8.10156 6.05566C7.53906 6.05566 7.16992 5.71289 7.16992 5.19434C7.16992 4.64062 7.62695 4.24512 8.25977 4.24512C8.40918 4.24512 8.56738 4.27148 8.7168 4.31543C8.6377 4.54395 8.59375 4.79004 8.58496 5.0625ZM13.8408 9.43066C13.8408 9.68555 14.0342 9.8877 14.3066 9.91406C14.7812 9.94922 15.2119 9.87891 15.5811 9.73828C15.5898 9.84375 15.5898 9.9668 15.5898 10.0986C15.5898 11.1621 15.2207 11.9355 14.7812 11.9355C14.3945 11.9355 14.1309 11.4434 14.1309 10.7402C14.1309 10.6084 14.0342 10.5381 13.9111 10.5381C13.7969 10.5381 13.6562 10.5469 13.5244 10.5469C12.6367 10.5469 12.1797 10.2568 12.1797 9.69434C12.1797 8.26172 14.8428 8.54297 15.0889 6.20508C15.6602 6.37207 16.0117 6.87305 16.0117 7.55859C16.0117 8.47266 15.3438 9.03516 14.3242 8.95605C14.0605 8.93848 13.8408 9.16699 13.8408 9.43066Z" fill="#1D9BF0"/>
</svg>
