<svg width="20" height="20" viewBox="0 0 20 20" fill="none" xmlns="http://www.w3.org/2000/svg">
<g clip-path="url(#clip0_308_2365)">
<path d="M0.261719 5.18066C0.261719 5.68164 0.613281 6.02441 1.14941 6.02441H4.35742V14.7695C4.35742 15.2266 4.65625 15.5254 5.11328 15.5254H13.876V18.7686C13.876 19.3135 14.2539 19.6738 14.7549 19.6738C15.2646 19.6738 15.6426 19.3135 15.6426 18.7686V15.5254H18.8506C19.3867 15.5254 19.7383 15.1826 19.7383 14.6904C19.7383 14.1895 19.3867 13.8467 18.8506 13.8467H15.6426V5.10156C15.6426 4.64453 15.3438 4.33691 14.8867 4.33691H6.13281V1.10254C6.13281 0.557617 5.75488 0.188477 5.24512 0.188477C4.74414 0.188477 4.35742 0.557617 4.35742 1.10254V4.33691H1.14941C0.613281 4.33691 0.261719 4.68848 0.261719 5.18066ZM6.37891 13.8467C6.20312 13.8467 6.13281 13.7764 6.13281 13.5918V6.02441H13.6211C13.7969 6.02441 13.876 6.09473 13.876 6.27051V13.8467H6.37891Z" fill="#1D9BF0"/>
</g>
<defs>
<clipPath id="clip0_308_2365">
<rect width="20" height="20" fill="white"/>
</clipPath>
</defs>
</svg>
