<svg width="20" height="23" viewBox="0 0 20 23" fill="none" xmlns="http://www.w3.org/2000/svg">
<path d="M0.841797 19.9424C0.841797 21.8496 1.82617 22.834 3.70703 22.834H11.9336C13.8145 22.834 14.7988 21.8408 14.7988 19.9424V18.3164H16.293C18.1738 18.3164 19.1582 17.3232 19.1582 15.4248V8.47266C19.1582 7.3125 18.9121 6.57422 18.2178 5.8623L13.8408 1.39746C13.1729 0.720703 12.3818 0.457031 11.3711 0.457031H8.06641C6.18555 0.457031 5.20117 1.4502 5.20117 3.35742V4.97461H3.70703C1.82617 4.97461 0.841797 5.97656 0.841797 7.875V19.9424ZM13.9111 10.6963L9.14746 5.8623C8.47949 5.18555 7.9082 5.00098 6.9502 4.9834V3.46289C6.9502 2.66309 7.37207 2.21484 8.21582 2.21484H11.8809V6.38965C11.8809 7.47949 12.4609 8.05078 13.542 8.05078H17.4004V15.3105C17.4004 16.1191 16.9785 16.5674 16.1348 16.5674H14.7988V13.1924C14.7988 12.0059 14.6494 11.4521 13.9111 10.6963ZM13.3311 6.16992V2.92676L16.9434 6.60059H13.7617C13.4541 6.60059 13.3311 6.47754 13.3311 6.16992ZM2.59082 19.8281V7.98926C2.59082 7.18066 3.0127 6.73242 3.86523 6.73242H6.5459V11.5137C6.5459 12.7881 7.16992 13.4033 8.43555 13.4033H13.0498V19.8281C13.0498 20.6367 12.6279 21.085 11.7754 21.085H3.85645C3.0127 21.085 2.59082 20.6367 2.59082 19.8281ZM8.60254 11.8652C8.24219 11.8652 8.08398 11.7158 8.08398 11.3467V7.06641L12.8125 11.8652H8.60254Z" fill="#1D9BF0"/>
</svg>
