<svg width="20" height="19" viewBox="0 0 20 19" fill="none" xmlns="http://www.w3.org/2000/svg">
<g clip-path="url(#clip0_308_2698)">
<path d="M9.99121 18.7422C14.9746 18.7422 19.0879 14.6289 19.0879 9.6543C19.0879 4.67969 14.9658 0.566406 9.98242 0.566406C5.00781 0.566406 0.90332 4.67969 0.90332 9.6543C0.90332 14.6289 5.0166 18.7422 9.99121 18.7422ZM4.7002 4.14355C5.57031 3.30859 6.64258 2.66699 7.8291 2.30664C7.20508 2.93066 6.67773 3.81836 6.28223 4.89062C5.66699 4.69727 5.13086 4.44238 4.7002 4.14355ZM12.1621 2.31543C13.3486 2.67578 14.4121 3.30859 15.2822 4.15234C14.8516 4.45117 14.3242 4.69727 13.709 4.89941C13.3135 3.81836 12.7861 2.93945 12.1621 2.31543ZM7.50391 5.19824C7.9873 3.90625 8.64648 2.95703 9.37598 2.61426V5.3916C8.70801 5.36523 8.08398 5.30371 7.50391 5.19824ZM10.6064 2.61426C11.3359 2.95703 12.0039 3.90625 12.4785 5.19824C11.9072 5.30371 11.2744 5.36523 10.6064 5.3916V2.61426ZM2.35352 9.03906C2.47656 7.55371 3.03027 6.18262 3.8916 5.05762C4.41895 5.45312 5.11328 5.7959 5.92188 6.05078C5.69336 6.95605 5.55273 7.9668 5.50879 9.03906H2.35352ZM14.4736 9.03906C14.4385 7.9668 14.2891 6.95605 14.0605 6.05078C14.8691 5.7959 15.5635 5.45312 16.0908 5.05762C16.9521 6.18262 17.5059 7.55371 17.6289 9.03906H14.4736ZM10.6064 9.03906V6.62207C11.3887 6.5957 12.1445 6.50781 12.8389 6.36719C13.041 7.18457 13.1816 8.08984 13.2168 9.03906H10.6064ZM6.76562 9.03906C6.80957 8.08984 6.94141 7.18457 7.14355 6.36719C7.84668 6.50781 8.59375 6.5957 9.37598 6.62207V9.03906H6.76562ZM2.35352 10.2695H5.50879C5.54395 11.3594 5.69336 12.3789 5.93066 13.3018C5.13086 13.5566 4.43652 13.8906 3.90918 14.2773C3.03906 13.1436 2.47656 11.7637 2.35352 10.2695ZM6.76562 10.2695H9.37598V12.7305C8.60254 12.7568 7.84668 12.8447 7.15234 12.9854C6.94141 12.1504 6.80957 11.2275 6.76562 10.2695ZM10.6064 12.7305V10.2695H13.2256C13.1816 11.2275 13.041 12.1504 12.8301 12.9854C12.1357 12.8447 11.3887 12.7568 10.6064 12.7305ZM14.0605 13.3018C14.2891 12.3789 14.4385 11.3594 14.4824 10.2695H17.6289C17.5059 11.7637 16.9434 13.1436 16.0732 14.2773C15.5459 13.8906 14.8604 13.5566 14.0605 13.3018ZM10.6064 13.9609C11.2744 13.9873 11.8896 14.0488 12.4697 14.1543C11.9951 15.4199 11.3359 16.3604 10.6064 16.7031V13.9609ZM7.52148 14.1543C8.09277 14.0488 8.7168 13.9873 9.37598 13.9609V16.7031C8.65527 16.3604 7.99609 15.4199 7.52148 14.1543ZM4.72656 15.1826C5.15723 14.8926 5.68457 14.6465 6.29102 14.4531C6.67773 15.5078 7.20508 16.3779 7.81152 16.9932C6.64258 16.6416 5.58789 16.0088 4.72656 15.1826ZM13.7002 14.4531C14.3066 14.6465 14.834 14.8926 15.2646 15.1826C14.3945 16.0088 13.3398 16.6416 12.1709 16.9932C12.7861 16.3779 13.3047 15.5078 13.7002 14.4531Z" fill="#1D9BF0"/>
</g>
<defs>
<clipPath id="clip0_308_2698">
<rect width="20" height="19" fill="white"/>
</clipPath>
</defs>
</svg>
