<svg width="20" height="21" viewBox="0 0 20 21" fill="none" xmlns="http://www.w3.org/2000/svg">
<g clip-path="url(#clip0_308_2621)">
<path d="M9.99121 20.751C14.9746 20.751 19.0879 16.6377 19.0879 11.6543C19.0879 8.81541 17.6729 6.12595 15.5459 4.52635C15.0713 4.13963 14.4912 4.20994 14.2012 4.62302C13.8848 5.05369 14.0254 5.57224 14.4297 5.9326C16.1611 7.25974 17.2598 9.3076 17.2686 11.6543C17.2773 15.6885 14.0254 18.9316 9.99121 18.9316C5.95703 18.9316 2.73145 15.6885 2.73145 11.6543C2.73145 8.24412 5.03418 5.40525 8.18066 4.60545V5.87986C8.18066 6.55662 8.68164 6.74119 9.22656 6.34568L12.1973 4.2451C12.6367 3.9199 12.6455 3.42771 12.1973 3.11131L9.23535 1.00193C8.68164 0.606423 8.18066 0.782205 8.18066 1.46775V2.75095C4.0498 3.60349 0.90332 7.2949 0.90332 11.6543C0.90332 16.6377 5.0166 20.751 9.99121 20.751Z" fill="#1D9BF0"/>
</g>
<defs>
<clipPath id="clip0_308_2621">
<rect width="20" height="21" fill="white"/>
</clipPath>
</defs>
</svg>
