<svg width="20" height="21" viewBox="0 0 20 21" fill="none" xmlns="http://www.w3.org/2000/svg">
<path d="M19.5361 6.92969C19.5361 3.82715 17.5498 1.28711 15.001 1.28711H12.1094C10.9229 0.680664 9.5166 0.329102 7.96973 0.329102H6.73926C5.59668 0.329102 4.62109 0.399414 3.98828 0.557617C2.69629 0.874023 1.87891 1.79688 1.87891 2.94824C1.87891 3.15039 1.91406 3.34375 1.9668 3.52832C1.36035 4.00293 1.01758 4.68848 1.01758 5.44434C1.01758 5.7959 1.08789 6.13867 1.21094 6.42871C0.806641 6.85938 0.569336 7.4834 0.569336 8.125C0.569336 8.54688 0.674805 8.97754 0.850586 9.31152C0.604492 9.68066 0.463867 10.1816 0.463867 10.7354C0.463867 12.1416 1.53613 13.2227 2.9248 13.2227H6.19434C6.37891 13.2227 6.50195 13.3105 6.49316 13.4775C6.44922 14.3828 5.02539 16.5625 5.02539 18.3467C5.02539 19.6562 5.94824 20.6143 7.22266 20.6143C8.14551 20.6143 8.77832 20.1309 9.38477 18.9795C10.4834 16.8701 11.8018 15.0244 13.7617 12.6074H15.335C17.7256 12.6074 19.5361 10.085 19.5361 6.92969ZM14.0605 7C14.0605 8.86328 13.6475 10.0498 12.4521 11.6494C11.125 13.4248 9.2793 15.5693 7.95215 18.2236C7.6709 18.7773 7.47754 18.9092 7.20508 18.9092C6.87109 18.9092 6.65137 18.6719 6.65137 18.25C6.65137 16.9492 8.13672 14.7695 8.13672 13.3369C8.13672 12.2822 7.28418 11.5967 6.12402 11.5967H2.96875C2.45898 11.5967 2.08105 11.2188 2.08105 10.709C2.08105 10.3486 2.2041 10.1113 2.50293 9.8125C2.73145 9.5752 2.7666 9.24121 2.56445 9.0127C2.30957 8.65234 2.2041 8.42383 2.2041 8.125C2.2041 7.76465 2.37109 7.45703 2.72266 7.19336C3.02148 6.98242 3.12695 6.62207 2.95117 6.27051C2.7666 5.91895 2.66992 5.73438 2.66992 5.46191C2.66992 5.04004 2.94238 4.71484 3.4873 4.4248C3.77734 4.2666 3.85645 3.95898 3.7334 3.67773C3.54883 3.22949 3.52246 3.15039 3.53125 2.95703C3.53125 2.5791 3.80371 2.28027 4.39258 2.13086C4.91113 1.99902 5.7373 1.94629 6.82715 1.95508L7.96094 1.96387C11.5996 1.99902 14.0605 4.03809 14.0605 7ZM17.9453 6.92969C17.9453 9.16211 16.7939 10.9463 15.4756 10.999C15.2471 11.0078 15.0186 11.0078 14.79 11.0078C15.4141 9.78613 15.6865 8.52051 15.6865 7C15.6865 5.38281 15.124 3.95898 14.1045 2.84277C14.4297 2.84277 14.7637 2.85156 15.0977 2.85156C16.6357 2.91309 17.9453 4.71484 17.9453 6.92969Z" fill="#1D9BF0"/>
</svg>
