<svg width="20" height="21" viewBox="0 0 20 21" fill="none" xmlns="http://www.w3.org/2000/svg">
<path d="M0.463867 13.9854C0.463867 17.0879 2.4502 19.6279 4.99902 19.6279H7.89062C9.07715 20.2344 10.4834 20.5859 12.0303 20.5859H13.2607C14.4033 20.5859 15.3789 20.5156 16.0117 20.3574C17.3037 20.0322 18.1211 19.1182 18.1211 17.9668C18.1211 17.7559 18.0947 17.5713 18.0332 17.3779C18.6396 16.9121 18.9824 16.2178 18.9824 15.4619C18.9824 15.1104 18.9121 14.7676 18.7891 14.4775C19.1934 14.0469 19.4307 13.4316 19.4307 12.79C19.4307 12.3594 19.3252 11.9375 19.1494 11.6035C19.3955 11.2256 19.5361 10.7246 19.5361 10.1797C19.5361 8.77344 18.4639 7.69238 17.0752 7.69238H13.8057C13.6211 7.69238 13.498 7.60449 13.5068 7.4375C13.5508 6.52344 14.9746 4.35254 14.9746 2.56836C14.9746 1.25879 14.0518 0.300781 12.7773 0.300781C11.8545 0.300781 11.2217 0.78418 10.6152 1.93555C9.52539 4.04492 8.19824 5.89062 6.23828 8.29883H4.66504C2.27441 8.29883 0.463867 10.8301 0.463867 13.9854ZM5.93945 13.915C5.93945 12.0518 6.35254 10.8564 7.54785 9.26562C8.875 7.48145 10.7207 5.3457 12.0479 2.69141C12.3291 2.1377 12.5225 1.99707 12.8037 1.99707C13.1377 1.99707 13.3574 2.24316 13.3574 2.66504C13.3574 3.96582 11.8633 6.14551 11.8633 7.56934C11.8633 8.63281 12.7158 9.30957 13.876 9.30957H17.0312C17.541 9.30957 17.9189 9.69629 17.9189 10.2061C17.9189 10.5664 17.8047 10.8037 17.4971 11.1025C17.2686 11.3311 17.2334 11.665 17.4355 11.9023C17.6904 12.2539 17.7959 12.4912 17.7959 12.79C17.7959 13.1504 17.6289 13.458 17.2773 13.7129C16.9785 13.9326 16.873 14.2842 17.0488 14.6357C17.2334 14.9961 17.3301 15.1719 17.3301 15.4531C17.3301 15.875 17.0576 16.1914 16.5127 16.4814C16.2227 16.6396 16.1436 16.9561 16.2666 17.2285C16.4512 17.6768 16.4775 17.7646 16.4688 17.958C16.4688 18.3359 16.1963 18.6348 15.6074 18.7842C15.0889 18.9072 14.2627 18.9688 13.1729 18.96L12.0391 18.9512C8.40039 18.916 5.93945 16.8682 5.93945 13.915ZM2.06348 13.9854C2.06348 11.7529 3.20605 9.96875 4.52441 9.90723C4.75293 9.90723 4.98145 9.90723 5.20996 9.90723C4.58594 11.1201 4.31348 12.3945 4.31348 13.915C4.31348 15.5322 4.87598 16.9561 5.9043 18.0635C5.5791 18.0635 5.23633 18.0635 4.90234 18.0635C3.36426 18.002 2.06348 16.1914 2.06348 13.9854Z" fill="#1D9BF0"/>
</svg>
