<svg width="18" height="18" viewBox="0 0 18 18" fill="none" xmlns="http://www.w3.org/2000/svg">
<path d="M0.0966797 6.18457C0.0966797 9.9375 3.25195 13.6465 8.15625 16.8105C8.42871 16.9863 8.7627 17.1621 8.99121 17.1621C9.21973 17.1621 9.55371 16.9863 9.82617 16.8105C14.7393 13.6465 17.8857 9.9375 17.8857 6.18457C17.8857 2.94141 15.6445 0.691406 12.7705 0.691406C11.0918 0.691406 9.78223 1.45605 8.99121 2.61621C8.21777 1.46484 6.89941 0.691406 5.2207 0.691406C2.33789 0.691406 0.0966797 2.94141 0.0966797 6.18457ZM1.90723 6.17578C1.90723 3.96094 3.36621 2.45801 5.32617 2.45801C6.9082 2.45801 7.7959 3.41602 8.34961 4.25098C8.5957 4.61133 8.7627 4.72559 8.99121 4.72559C9.22852 4.72559 9.37793 4.60254 9.63281 4.25098C10.2305 3.43359 11.083 2.45801 12.6562 2.45801C14.625 2.45801 16.084 3.96094 16.084 6.17578C16.084 9.26953 12.8672 12.6973 9.1582 15.1582C9.0791 15.2109 9.02637 15.2461 8.99121 15.2461C8.95605 15.2461 8.90332 15.2109 8.83301 15.1582C5.12402 12.6973 1.90723 9.26953 1.90723 6.17578Z" fill="#1D9BF0"/>
</svg>
