<svg width="20" height="19" viewBox="0 0 20 19" fill="none" xmlns="http://www.w3.org/2000/svg">
<g clip-path="url(#clip0_308_2319)">
<path d="M1.87012 15.7871H3.02148C3.28516 15.7871 3.39062 15.7344 3.58398 15.585L4.17285 15.1368C4.49805 15.462 4.98145 15.5323 5.46484 15.3213L8.37402 14.1084C8.59375 14.0205 8.70801 13.9327 8.84863 13.792L17.3389 5.36332C18.1826 4.51957 18.1826 3.50883 17.3301 2.6475L15.4229 0.731484C14.5703 -0.121055 13.5596 -0.129844 12.7158 0.713906L4.22559 9.13383C4.07617 9.28324 3.99707 9.38871 3.90039 9.61723L2.66992 12.5176C2.46777 12.9834 2.52051 13.4405 2.8457 13.8008L1.58008 15.1104C1.30762 15.4004 1.43945 15.7871 1.87012 15.7871ZM13.6914 1.87406C13.9199 1.65434 14.1924 1.64555 14.4033 1.86527L16.1963 3.66703C16.416 3.88676 16.4072 4.15043 16.1699 4.37894L15.5986 4.95023L13.1113 2.45414L13.6914 1.87406ZM5.78125 9.74027L12.1621 3.40336L14.6406 5.89945L8.26855 12.2364L5.78125 9.74027ZM5.28906 13.7657C5.12207 13.8272 5.00781 13.8272 4.8584 13.6778L4.30469 13.1329C4.16406 12.9922 4.16406 12.8604 4.22559 12.711L5.0166 10.8741L7.12598 13.001L5.28906 13.7657ZM1.57129 18.9073H18.4375C18.8594 18.9073 19.2021 18.5469 19.2021 18.125C19.2021 17.7032 18.8594 17.3516 18.4375 17.3516H1.57129C1.14062 17.3516 0.797852 17.7032 0.797852 18.125C0.797852 18.5469 1.14941 18.9073 1.57129 18.9073Z" fill="#1D9BF0"/>
</g>
<defs>
<clipPath id="clip0_308_2319">
<rect width="20" height="19" fill="white"/>
</clipPath>
</defs>
</svg>
