<svg width="20" height="17" viewBox="0 0 20 17" fill="none" xmlns="http://www.w3.org/2000/svg">
<path d="M1.50977 16.9248C1.95801 16.9248 2.31836 16.5645 2.31836 16.1162V1.14844C2.31836 0.700195 1.95801 0.348633 1.50977 0.348633C1.07031 0.348633 0.701172 0.700195 0.701172 1.14844V16.1162C0.701172 16.5645 1.07031 16.9248 1.50977 16.9248ZM5.93945 16.9248C6.3877 16.9248 6.74805 16.5645 6.74805 16.1162V1.14844C6.74805 0.700195 6.3877 0.348633 5.93945 0.348633C5.5 0.348633 5.13086 0.700195 5.13086 1.14844V16.1162C5.13086 16.5645 5.5 16.9248 5.93945 16.9248ZM10.3691 16.9248C10.8174 16.9248 11.1777 16.5645 11.1777 16.1162V1.14844C11.1777 0.700195 10.8086 0.348633 10.3691 0.348633C9.92969 0.348633 9.56055 0.700195 9.56055 1.14844V16.1162C9.56055 16.5645 9.9209 16.9248 10.3691 16.9248ZM15.8096 11.4668L18.8594 9.41895C19.4131 9.0498 19.3867 8.27637 18.8594 7.90723L15.8096 5.82422C15.0977 5.34082 14.3506 5.60449 14.3594 6.45703V10.8428C14.3506 11.6689 15.1328 11.915 15.8096 11.4668Z" fill="#1D9BF0"/>
</svg>
