<svg width="20" height="17" viewBox="0 0 20 17" fill="none" xmlns="http://www.w3.org/2000/svg">
  <g clip-path="url(#clip0_308_2454)">
    <path
      d="M2.88086 5.12109C3.24121 5.12109 3.4873 4.92773 3.4873 4.48828V1.63184C3.4873 1.23633 3.20605 0.990234 2.80176 0.990234C2.47656 0.990234 2.27441 1.10449 2.03711 1.25391L1.41309 1.68457C1.21973 1.80762 1.13184 1.93066 1.13184 2.13281C1.13184 2.37891 1.31641 2.5459 1.52734 2.53711C1.6416 2.53711 1.70312 2.51953 1.85254 2.41406L2.24805 2.15039H2.26562V4.48828C2.26562 4.92773 2.51172 5.12109 2.88086 5.12109ZM6.63379 4.10156H18.2266C18.7012 4.10156 19.0791 3.73242 19.0791 3.25781C19.0791 2.7832 18.71 2.41406 18.2266 2.41406H6.63379C6.15918 2.41406 5.79004 2.7832 5.79004 3.25781C5.79004 3.73242 6.15918 4.10156 6.63379 4.10156ZM1.43945 10.5088H3.75098C4.00586 10.5088 4.20801 10.333 4.20801 10.0605C4.20801 9.7793 4.01465 9.60352 3.75098 9.60352H2.51172V9.58594L3.22363 9.01465C3.83008 8.52246 4.08496 8.24121 4.08496 7.70508C4.08496 6.97559 3.46973 6.49219 2.48535 6.49219C1.61523 6.49219 0.991211 6.93164 0.991211 7.50293C0.991211 7.80176 1.18457 7.95996 1.50098 7.95996C1.70312 7.95996 1.85254 7.88965 1.98438 7.69629C2.11621 7.49414 2.27441 7.38867 2.50293 7.38867C2.74902 7.38867 2.9248 7.54688 2.9248 7.78418C2.9248 7.99512 2.81934 8.16211 2.3623 8.54004L1.19336 9.48926C1.01758 9.63867 0.938477 9.79688 0.938477 10.0078C0.938477 10.2979 1.13184 10.5088 1.43945 10.5088ZM6.63379 9.50684H18.2266C18.7012 9.50684 19.0791 9.1377 19.0791 8.66309C19.0791 8.18848 18.71 7.81934 18.2266 7.81934H6.63379C6.15918 7.81934 5.79004 8.18848 5.79004 8.66309C5.79004 9.1377 6.15918 9.50684 6.63379 9.50684ZM2.50293 16.0547C3.59277 16.0547 4.22559 15.5801 4.22559 14.8242C4.22559 14.3232 3.88281 13.9893 3.25879 13.9365V13.9102C3.70703 13.8223 4.06738 13.5146 4.06738 12.9961C4.06738 12.3018 3.38184 11.9326 2.49414 11.9326C1.79102 11.9326 1.00879 12.249 1.00879 12.8555C1.00879 13.1191 1.20215 13.3037 1.4834 13.3037C1.68555 13.3037 1.78223 13.2246 1.90527 13.0928C2.11621 12.873 2.2832 12.8115 2.49414 12.8115C2.75781 12.8115 2.95117 12.9346 2.95117 13.1895C2.95117 13.4268 2.75781 13.5498 2.40625 13.5498H2.29199C2.0459 13.5498 1.87891 13.6816 1.87891 13.9541C1.87891 14.209 2.03711 14.3496 2.29199 14.3496H2.41504C2.79297 14.3496 2.99512 14.4727 3.00391 14.7363C3.00391 14.9736 2.78418 15.1318 2.50293 15.1318C2.18652 15.1318 1.9668 14.9561 1.7998 14.8066C1.69434 14.71 1.59766 14.6309 1.43066 14.6309C1.12305 14.6309 0.912109 14.8066 0.912109 15.1055C0.912109 15.7119 1.75586 16.0547 2.50293 16.0547ZM6.63379 14.9121H18.2266C18.7012 14.9121 19.0791 14.543 19.0791 14.0684C19.0791 13.5938 18.71 13.2246 18.2266 13.2246H6.63379C6.15918 13.2246 5.79004 13.5938 5.79004 14.0684C5.79004 14.543 6.15918 14.9121 6.63379 14.9121Z"
      fill="#1D9BF0" />
  </g>
  <defs>
    <clipPath id="clip0_308_2454">
      <rect width="20" height="17" fill="white" />
    </clipPath>
  </defs>
</svg>