<svg width="20" height="19" viewBox="0 0 20 19" fill="none" xmlns="http://www.w3.org/2000/svg">
<g clip-path="url(#clip0_308_3838)">
<path d="M9.99121 18.7422C14.9746 18.7422 19.0879 14.6289 19.0879 9.6543C19.0879 4.67969 14.9658 0.566406 9.98242 0.566406C5.00781 0.566406 0.90332 4.67969 0.90332 9.6543C0.90332 14.6289 5.0166 18.7422 9.99121 18.7422ZM9.99121 16.9316C5.95703 16.9316 2.73145 13.6885 2.73145 9.6543C2.73145 5.62012 5.95703 2.38574 9.98242 2.38574C14.0166 2.38574 17.2598 5.62012 17.2686 9.6543C17.2773 13.6885 14.0254 16.9316 9.99121 16.9316ZM9.79785 11.4033C10.2812 11.4033 10.5889 11.1221 10.6152 10.7617C10.6152 10.7354 10.6152 10.6914 10.624 10.6562C10.6504 10.208 10.958 9.90918 11.5293 9.53125C12.3994 8.96875 12.9531 8.45898 12.9531 7.44824C12.9531 5.98926 11.6348 5.14551 10.0703 5.14551C8.56738 5.14551 7.53906 5.83105 7.2666 6.65723C7.21387 6.80664 7.17871 6.95605 7.17871 7.11426C7.17871 7.54492 7.5127 7.80859 7.91699 7.80859C8.43555 7.80859 8.5498 7.54492 8.82227 7.24609C9.10352 6.80664 9.47266 6.55176 9.99121 6.55176C10.6855 6.55176 11.1426 6.94727 11.1426 7.53613C11.1426 8.07227 10.7734 8.3623 10.0264 8.87207C9.40234 9.31152 8.94531 9.75977 8.94531 10.5508V10.6475C8.94531 11.1484 9.25293 11.4033 9.79785 11.4033ZM9.78027 14.1016C10.3428 14.1016 10.8086 13.6973 10.8086 13.1348C10.8086 12.5811 10.3516 12.168 9.78027 12.168C9.20898 12.168 8.74316 12.5811 8.74316 13.1348C8.74316 13.6885 9.20898 14.1016 9.78027 14.1016Z" fill="#1D9BF0"/>
</g>
<defs>
<clipPath id="clip0_308_3838">
<rect width="20" height="19" fill="white"/>
</clipPath>
</defs>
</svg>
