<svg width="20" height="17" viewBox="0 0 20 17" fill="none" xmlns="http://www.w3.org/2000/svg">
<g clip-path="url(#clip0_308_2472)">
<path d="M1.71191 2.48438H18.2705C18.7188 2.48438 19.0791 2.11523 19.0791 1.67578C19.0791 1.21875 18.7188 0.867188 18.2705 0.867188H1.71191C1.26367 0.867188 0.912109 1.22754 0.912109 1.67578C0.912109 2.11523 1.26367 2.48438 1.71191 2.48438ZM1.71191 7.08984H18.2705C18.7188 7.08984 19.0791 6.7207 19.0791 6.28125C19.0791 5.82422 18.7188 5.47266 18.2705 5.47266H1.71191C1.26367 5.47266 0.912109 5.83301 0.912109 6.28125C0.912109 6.7207 1.26367 7.08984 1.71191 7.08984ZM1.71191 11.6953H18.2705C18.7188 11.6953 19.0791 11.3262 19.0791 10.8867C19.0791 10.4385 18.7188 10.0781 18.2705 10.0781H1.71191C1.26367 10.0781 0.912109 10.4385 0.912109 10.8867C0.912109 11.3262 1.26367 11.6953 1.71191 11.6953ZM1.71191 16.3008H18.2705C18.7188 16.3008 19.0791 15.9316 19.0791 15.4922C19.0791 15.0439 18.7188 14.6836 18.2705 14.6836H1.71191C1.26367 14.6836 0.912109 15.0439 0.912109 15.4922C0.912109 15.9316 1.26367 16.3008 1.71191 16.3008Z" fill="#1D9BF0"/>
</g>
<defs>
<clipPath id="clip0_308_2472">
<rect width="20" height="17" fill="white"/>
</clipPath>
</defs>
</svg>
