<svg width="20" height="19" viewBox="0 0 20 19" fill="none" xmlns="http://www.w3.org/2000/svg">
<g clip-path="url(#clip0_308_2359)">
<path d="M7.66211 4.9873C7.78516 4.9873 7.85547 4.89941 7.88184 4.78516C8.17188 3.32617 8.1543 3.29102 9.6748 2.99219C9.80664 2.96582 9.88574 2.89551 9.88574 2.77246C9.88574 2.64941 9.80664 2.5791 9.68359 2.55273C8.14551 2.23633 8.1543 2.20117 7.88184 0.750977C7.86426 0.636719 7.78516 0.557617 7.66211 0.557617C7.53906 0.557617 7.46875 0.636719 7.45117 0.750977C7.15234 2.21875 7.17871 2.27148 5.64941 2.55273C5.52637 2.57031 5.44727 2.64941 5.44727 2.77246C5.44727 2.88672 5.52637 2.96582 5.64941 2.99219C7.17871 3.2998 7.16992 3.33496 7.45117 4.78516C7.46875 4.89941 7.53906 4.9873 7.66211 4.9873ZM15.1943 8.11621C15.335 8.11621 15.4229 8.01074 15.4492 7.87891C15.7656 6.17383 15.748 6.08594 17.541 5.77832C17.6904 5.75195 17.7871 5.66406 17.7871 5.52344C17.7871 5.38281 17.6904 5.29492 17.5498 5.26855C15.748 4.94336 15.7217 4.86426 15.4492 3.16797C15.4229 3.02734 15.335 2.93066 15.1943 2.93066C15.0537 2.93066 14.957 3.02734 14.9395 3.16797C14.6318 4.88184 14.6406 4.9873 12.8301 5.26855C12.6982 5.28613 12.5928 5.38281 12.5928 5.52344C12.6016 5.66406 12.6895 5.75195 12.8301 5.77832C14.6406 6.09473 14.6582 6.18262 14.9395 7.87891C14.957 8.01074 15.0537 8.11621 15.1943 8.11621ZM2.81934 10.7529C2.95996 10.7529 3.05664 10.6562 3.07422 10.5156C3.35547 8.81055 3.38184 8.72266 5.1748 8.41504C5.31543 8.38867 5.41211 8.30078 5.41211 8.16016C5.41211 8.01953 5.31543 7.93164 5.18359 7.90527C3.37305 7.58008 3.37305 7.50098 3.07422 5.80469C3.04785 5.66406 2.95996 5.56738 2.81934 5.56738C2.67871 5.56738 2.59082 5.66406 2.56445 5.80469C2.2832 7.51855 2.26562 7.60645 0.463867 7.90527C0.323242 7.93164 0.226562 8.01953 0.226562 8.16016C0.226562 8.30078 0.323242 8.38867 0.455078 8.41504C2.26562 8.73145 2.26562 8.82812 2.56445 10.5244C2.59082 10.6562 2.67871 10.7529 2.81934 10.7529ZM17.8662 18.2939C18.2969 18.7334 19.0352 18.7246 19.457 18.2939C19.8877 17.8457 19.8789 17.1426 19.457 16.7031L11.1074 8.30957C10.6768 7.87891 9.93848 7.87891 9.5166 8.30957C9.08594 8.75781 9.09473 9.46973 9.5166 9.90039L17.8662 18.2939ZM12.9092 12.2031L10.2637 9.55762C10.0879 9.37305 10.0264 9.16211 10.2021 8.98633C10.3604 8.82812 10.5801 8.87207 10.7734 9.05664L13.4102 11.7021L12.9092 12.2031ZM7.05566 18.5137C7.24023 18.5137 7.37207 18.3906 7.39844 18.1885C7.67969 15.8154 7.79395 15.7451 10.2109 15.3672C10.4307 15.332 10.5625 15.2178 10.5625 15.0244C10.5625 14.8398 10.4307 14.7168 10.2549 14.6816C7.80273 14.207 7.67969 14.2246 7.39844 11.8604C7.37207 11.6582 7.24023 11.5352 7.05566 11.5352C6.87109 11.5352 6.73926 11.6582 6.71289 11.8516C6.41406 14.2598 6.32617 14.3477 3.86523 14.6816C3.68945 14.6992 3.54883 14.8398 3.54883 15.0244C3.54883 15.209 3.68066 15.332 3.85645 15.3672C6.33496 15.8418 6.40527 15.8418 6.71289 18.2061C6.73926 18.3906 6.87109 18.5137 7.05566 18.5137Z" fill="#1D9BF0"/>
</g>
<defs>
<clipPath id="clip0_308_2359">
<rect width="20" height="19" fill="white"/>
</clipPath>
</defs>
</svg>
